<svg xmlns="http://www.w3.org/2000/svg" xmlns:xlink="http://www.w3.org/1999/xlink" xmlns:lucid="lucid" width="1527" height="1023"><g transform="translate(-180 -84)" lucid:page-tab-id="0_0"><path d="M840 246.4c0 7.73-31.34 14-70 14s-70-6.27-70-14v-112c0-7.73 31.34-14 70-14s70 6.27 70 14z" stroke="#000" stroke-width="2" fill="#fff"/><path d="M840 134.4c0 7.73-31.34 14-70 14s-70-6.27-70-14" stroke="#000" stroke-width="2" fill="none"/><use xlink:href="#a" transform="matrix(1,0,0,1,705,153.40058487383533) translate(27.570529513888893 46.60546875)"/><use xlink:href="#b" transform="matrix(1,0,0,1,705,153.40058487383533) translate(16.65473090277778 69.73914930555556)"/><use xlink:href="#c" transform="matrix(1,0,0,1,705,153.40058487383533) translate(72.01497395833334 69.73914930555556)"/><path d="M668.25 190.4H542" stroke="#000" stroke-width="2" fill="none"/><path d="M697.6 190.4l-14.86 14.85-15.15-14.85 15.14-14.85z" stroke="#000" stroke-width="2" fill="#fff"/><path d="M542.03 191.4H541v-2h1.03z"/><path d="M380 155.4h160v70H380z" stroke="#000" stroke-width="2" fill="#fff"/><use xlink:href="#d" transform="matrix(1,0,0,1,385,160.40058487383533) translate(37.57052951388889 25.60546875)"/><use xlink:href="#e" transform="matrix(1,0,0,1,385,160.40058487383533) translate(9.27734375 48.73914930555556)"/><use xlink:href="#f" transform="matrix(1,0,0,1,385,160.40058487383533) translate(64.63758680555556 48.73914930555556)"/><path d="M842.05 190.4h215.9M859.58 179.7l-18.07 10.7M1040.42 201.1l18.07-10.7" stroke="#000" stroke-width="2" fill="none"/><use xlink:href="#g" transform="matrix(1,0,0,1,881.337890625,194.40058487383533) translate(0 16.865234375)"/><use xlink:href="#h" transform="matrix(1,0,0,1,881.337890625,194.40058487383533) translate(69.609375 16.865234375)"/><path d="M1060 165.4h160v50h-160z" stroke="#000" stroke-width="2" fill="#fff"/><use xlink:href="#i" transform="matrix(1,0,0,1,1065,170.40058487383533) translate(18.934461805555557 27.17230902777778)"/><use xlink:href="#j" transform="matrix(1,0,0,1,1065,170.40058487383533) translate(74.29470486111111 27.17230902777778)"/><path d="M220 485.16h120v80c-20.04-13.36-32.52-13.36-40.08-13.36-12 0-27.96 13.36-39.96 13.36-7.44 0-20.04 0-39.96-13.36z" stroke="#000" stroke-width="2" fill="#fff"/><use xlink:href="#k" transform="matrix(1,0,0,1,225,490.16054474767043) translate(21.95963541666667 24.10546875)"/><use xlink:href="#l" transform="matrix(1,0,0,1,225,490.16054474767043) translate(14.271918402777779 47.23914930555556)"/><path d="M380 485.16h200v80H380z" stroke="#000" stroke-width="2" fill="#fff"/><use xlink:href="#m" transform="matrix(1,0,0,1,385,490.16054474767043) translate(58.14561631944445 21.351996527777775)"/><use xlink:href="#n" transform="matrix(1,0,0,1,385,490.16054474767043) translate(10.380859375 42.61176215277777)"/><use xlink:href="#o" transform="matrix(1,0,0,1,385,490.16054474767043) translate(21.865234375 63.43207465277778)"/><use xlink:href="#p" transform="matrix(1,0,0,1,385,490.16054474767043) translate(116.943359375 63.43207465277778)"/><use xlink:href="#q" transform="matrix(1,0,0,1,385,490.16054474767043) translate(140.9765625 63.43207465277778)"/><path d="M300 668.64h160v62H300z" stroke="#000" stroke-width="2" fill="#fff"/><use xlink:href="#r" transform="matrix(1,0,0,1,305,673.6412098738352) translate(10.785590277777786 33.67230902777778)"/><use xlink:href="#s" transform="matrix(1,0,0,1,305,673.6412098738352) translate(72.87326388888889 33.67230902777778)"/><path d="M480 567.16v37H380v44.98" stroke="#000" stroke-width="2" fill="none"/><path d="M481 567.2h-2v-1.04h2z"/><path d="M380 664.4l-4.64-14.26h9.28z" stroke="#000" stroke-width="2"/><path d="M380 732.64v67.86" stroke="#000" stroke-width="2" fill="none"/><path d="M381 732.67h-2v-1.03h2z"/><path d="M380 815.76l-4.64-14.26h9.28z" stroke="#000" stroke-width="2"/><path d="M300 820h160v40H300z" stroke="#000" stroke-width="2" fill="#fff"/><use xlink:href="#t" transform="matrix(1,0,0,1,305,825) translate(34.065755208333336 22.17230902777778)"/><path d="M380 862v37.5" stroke="#000" stroke-width="2" fill="none"/><path d="M381 862.03h-2V861h2z"/><path d="M380 914.76l-4.64-14.26h9.28z" stroke="#000" stroke-width="2"/><path d="M428 919c17.67 0 32 13.43 32 30s-14.33 30-32 30h-96c-17.67 0-32-13.43-32-30s14.33-30 32-30z" stroke="#0c7cba" stroke-width="2" fill="#fff"/><use xlink:href="#u" transform="matrix(1,0,0,1,305,923.9994151261646) translate(25.656467013888893 20.60546875)"/><use xlink:href="#v" transform="matrix(1,0,0,1,305,923.9994151261646) translate(90.92339409722223 20.60546875)"/><use xlink:href="#w" transform="matrix(1,0,0,1,305,923.9994151261646) translate(41.829427083333336 43.73914930555556)"/><path d="M720 605.16h120v95.28c-20.04-15.9-32.52-15.9-40.08-15.9-12 0-27.96 15.9-39.96 15.9-7.44 0-20.04 0-39.96-15.9z" stroke="#000" stroke-width="2" fill="#fff"/><use xlink:href="#x" transform="matrix(1,0,0,1,725,610.1605447476704) translate(25.290798611111114 19.038628472222225)"/><use xlink:href="#y" transform="matrix(1,0,0,1,725,610.1605447476704) translate(14.271918402777779 42.17230902777778)"/><use xlink:href="#z" transform="matrix(1,0,0,1,725,610.1605447476704) translate(0.9364149305555571 65.30598958333333)"/><path d="M880 612.8h140v80H880z" stroke="#000" stroke-width="2" fill="#fff"/><use xlink:href="#A" transform="matrix(1,0,0,1,885,617.8011697476704) translate(37.08116319444444 19.038628472222225)"/><use xlink:href="#B" transform="matrix(1,0,0,1,885,617.8011697476704) translate(46.80338541666667 42.17230902777778)"/><use xlink:href="#C" transform="matrix(1,0,0,1,885,617.8011697476704) translate(15.515407986111114 65.30598958333333)"/><path d="M780 694.42v61.8h80v44.28" stroke="#000" stroke-width="2" fill="none"/><path d="M781 694.45h-2v-.5l2-1.05z"/><path d="M860 815.76l-4.64-14.26h9.28z" stroke="#000" stroke-width="2"/><path d="M780 820h160v40H780z" stroke="#000" stroke-width="2" fill="#fff"/><use xlink:href="#D" transform="matrix(1,0,0,1,785,825) translate(6.754557291666671 22.17230902777778)"/><use xlink:href="#E" transform="matrix(1,0,0,1,785,825) translate(99.34353298611111 22.17230902777778)"/><path d="M950 694.8v61.6h-90v44.1" stroke="#000" stroke-width="2" fill="none"/><path d="M951 694.83h-2v-1.03h2z"/><path d="M860 815.76l-4.64-14.26h9.28z" stroke="#000" stroke-width="2"/><path d="M860 862v37.5" stroke="#000" stroke-width="2" fill="none"/><path d="M861 862.03h-2V861h2z"/><path d="M860 914.76l-4.64-14.26h9.28z" stroke="#000" stroke-width="2"/><path d="M914 919c19.88 0 36 17.9 36 40s-16.12 40-36 40H806c-19.88 0-36-17.9-36-40s16.12-40 36-40z" stroke="#0c7cba" stroke-width="2" fill="#fff"/><use xlink:href="#F" transform="matrix(1,0,0,1,775,923.9994151261646) translate(7.770182291666671 30.60546875)"/><use xlink:href="#G" transform="matrix(1,0,0,1,775,923.9994151261646) translate(56.01236979166667 30.60546875)"/><use xlink:href="#H" transform="matrix(1,0,0,1,775,923.9994151261646) translate(61.106770833333336 53.73914930555556)"/><path d="M680 485.16h200v80H680z" stroke="#000" stroke-width="2" fill="#fff"/><use xlink:href="#m" transform="matrix(1,0,0,1,685,490.16054474767043) translate(58.14561631944445 21.351996527777775)"/><use xlink:href="#n" transform="matrix(1,0,0,1,685,490.16054474767043) translate(10.380859375 42.61176215277777)"/><use xlink:href="#o" transform="matrix(1,0,0,1,685,490.16054474767043) translate(18.037109375 63.43207465277778)"/><use xlink:href="#p" transform="matrix(1,0,0,1,685,490.16054474767043) translate(113.115234375 63.43207465277778)"/><use xlink:href="#I" transform="matrix(1,0,0,1,685,490.16054474767043) translate(137.1484375 63.43207465277778)"/><path d="M780 567.16v18.5" stroke="#000" stroke-width="2" fill="none"/><path d="M781 567.2h-2v-1.04h2z"/><path d="M780 600.92l-4.64-14.26h9.28z" stroke="#000" stroke-width="2"/><path d="M1120 485.72h140V581c-23.38-15.9-37.94-15.9-46.76-15.9-14 0-32.62 15.9-46.62 15.9-8.68 0-23.38 0-46.62-15.9z" stroke="#000" stroke-width="2" fill="#fff"/><use xlink:href="#J" transform="matrix(1,0,0,1,1125,490.71933487383524) translate(-0.09874131944442865 30.60546875)"/><use xlink:href="#K" transform="matrix(1,0,0,1,1125,490.71933487383524) translate(24.27191840277778 53.73914930555556)"/><path d="M1170 628.64h160v40h-160z" stroke="#000" stroke-width="2" fill="#fff"/><use xlink:href="#r" transform="matrix(1,0,0,1,1175,633.6412098738352) translate(10.785590277777786 22.17230902777778)"/><use xlink:href="#s" transform="matrix(1,0,0,1,1175,633.6412098738352) translate(72.87326388888889 22.17230902777778)"/><path d="M1250 670.64v89.86" stroke="#000" stroke-width="2" fill="none"/><path d="M1251 670.67h-2v-1.03h2z"/><path d="M1250 775.76l-4.64-14.26h9.28z" stroke="#000" stroke-width="2"/><path d="M1170 780h160v40h-160z" stroke="#000" stroke-width="2" fill="#fff"/><use xlink:href="#L" transform="matrix(1,0,0,1,1175,785) translate(39.095052083333336 22.17230902777778)"/><path d="M1408 918c17.67 0 32 13.2 32 29.5s-14.33 29.5-32 29.5h-96c-17.67 0-32-13.2-32-29.5s14.33-29.5 32-29.5z" stroke="#0c7cba" stroke-width="2" fill="#fff"/><use xlink:href="#M" transform="matrix(1,0,0,1,1285,922.9988302523295) translate(19.807942708333343 31.67230902777778)"/><use xlink:href="#N" transform="matrix(1,0,0,1,1285,922.9988302523295) translate(71.62000868055557 31.67230902777778)"/><path d="M1182 918c15.46 0 28 13.43 28 30s-12.54 30-28 30h-84c-15.46 0-28-13.43-28-30s12.54-30 28-30z" stroke="#0c7cba" stroke-width="2" fill="#fff"/><use xlink:href="#O" transform="matrix(1,0,0,1,1075,922.9988302523295) translate(10.806206597222229 20.60546875)"/><use xlink:href="#P" transform="matrix(1,0,0,1,1075,922.9988302523295) translate(69.77973090277779 20.60546875)"/><use xlink:href="#Q" transform="matrix(1,0,0,1,1075,922.9988302523295) translate(41.31293402777778 43.73914930555556)"/><path d="M771 465.66h-2V303.9h2zm0-182.57h-2v-20.7h2z"/><path d="M770 261.4l1-.03v1.06h-2v-1.06zM770 480.92l-4.64-14.26h9.28z"/><path d="M770 484.16l-6-18.5h12zm-3.26-16.5L770 477.7l3.26-10.04z"/><path d="M1480 110.4h80v160h-80z" fill="none"/><path d="M1480 270.4c5.52 0 10-4.48 10-10v-60c0-5.52 4.48-10 10-10-5.52 0-10-4.48-10-10v-60c0-5.52-4.48-10-10-10" stroke="#000" stroke-width="2" fill="none"/><use xlink:href="#R" transform="matrix(1,0,0,1,1515,115.40058487383533) translate(0 71.044921875)"/><use xlink:href="#S" transform="matrix(1,0,0,1,1515,115.40058487383533) translate(0 91.865234375)"/><path d="M1480 468.04h220v218.28h-220z" fill="none"/><path d="M1480 686.32c7.53 0 13.64-6.1 13.64-13.64v-81.86c0-7.53 6.1-13.64 13.64-13.64-7.53 0-13.64-6.1-13.64-13.64v-81.86c0-7.53-6.1-13.64-13.64-13.64" stroke="#000" stroke-width="2" fill="none"/><use xlink:href="#T" transform="matrix(1,0,0,1,1525.9269291098117,473.04179474767056) translate(0 100.544921875)"/><use xlink:href="#U" transform="matrix(1,0,0,1,1525.9269291098117,473.04179474767056) translate(131.845703125 100.544921875)"/><use xlink:href="#V" transform="matrix(1,0,0,1,1525.9269291098117,473.04179474767056) translate(0 121.365234375)"/><use xlink:href="#W" transform="matrix(1,0,0,1,1525.9269291098117,473.04179474767056) translate(80.380859375 121.365234375)"/><path d="M1480 760h100v137h-100z" fill="none"/><path d="M1480 897c4.73 0 8.56-3.84 8.56-8.56v-51.38c0-4.73 3.84-8.56 8.56-8.56-4.72 0-8.56-3.83-8.56-8.56v-51.38c0-4.73-3.83-8.56-8.56-8.56" stroke="#000" stroke-width="2" fill="none"/><g><use xlink:href="#X" transform="matrix(1,0,0,1,1510.6871710084672,765) translate(0 69.955078125)"/></g><path d="M1130 1040h240v60h-240z" stroke="#000" stroke-opacity="0" stroke-width="2" fill="#fff" fill-opacity="0"/><g><use xlink:href="#Y" transform="matrix(1,0,0,1,1135,1045) translate(108.65234375 32.17230902777778)"/></g><path d="M1250 822v47h-110v29.5" stroke="#000" stroke-width="2" fill="none"/><path d="M1251 822.03h-2V821h2z"/><path d="M1140 913.76l-4.64-14.26h9.28z" stroke="#000" stroke-width="2"/><path d="M1250 822v47h110v29.5" stroke="#000" stroke-width="2" fill="none"/><path d="M1251 822.03h-2V821h2z"/><path d="M1360 913.76l-4.64-14.26h9.28z" stroke="#000" stroke-width="2"/><path d="M1250 821.5v202.12" stroke="#000" fill="none"/><path d="M1250.5 821.5h-1v-.5h1z"/><path d="M1250 1038.38l-4.64-14.26h9.28z" stroke="#000"/><path d="M771 371H481v94.66h-2V369h290v-65.1h2zm0-87.9h-2v-20.7h2z"/><path d="M770 261.4l1-.03v1.06h-2v-1.06zM480 480.92l-4.64-14.26h9.28z"/><path d="M480 484.16l-6-18.5h12zm-3.26-16.5L480 477.7l3.26-10.04zM771 369h524.44v240.14h-2V371H769v-67.1h2zm0-85.9h-2v-20.7h2z"/><path d="M770 261.4l1-.03v1.06h-2v-1.06zM1294.44 624.4l-4.63-14.26h9.28z"/><path d="M1294.44 627.64l-6-18.5h12.02zm-3.25-16.5l3.24 10.03 3.26-10.03z"/><g><use xlink:href="#Z" transform="matrix(1,0,0,1,685.400390625,283.08969813485237) translate(0 16.865234375)"/><use xlink:href="#aa" transform="matrix(1,0,0,1,685.400390625,283.08969813485237) translate(45.986328125 16.865234375)"/><use xlink:href="#ab" transform="matrix(1,0,0,1,685.400390625,283.08969813485237) translate(72.412109375 16.865234375)"/><use xlink:href="#ac" transform="matrix(1,0,0,1,685.400390625,283.08969813485237) translate(107.041015625 16.865234375)"/></g><path d="M1190 574.93v34.2" stroke="#000" stroke-width="2" fill="none"/><path d="M1191 574.96h-2v-.58l2-.9z"/><path d="M1190 624.4l-4.64-14.26h9.28z" stroke="#000" stroke-width="2"/><path d="M280 560.3v43.86h100v44.98" stroke="#000" stroke-width="2" fill="none"/><path d="M281 560.32h-2v-.6l2-.85z"/><path d="M380 664.4l-4.64-14.26h9.28z" stroke="#000" stroke-width="2"/><path d="M220 626.32h240v60H220z" stroke="#000" stroke-opacity="0" stroke-width="2" fill="#fff" fill-opacity="0"/><g><use xlink:href="#ad" transform="matrix(1,0,0,1,225,631.3187499999999) translate(83.05121527777777 30.73784722222222)"/><use xlink:href="#ae" transform="matrix(1,0,0,1,225,631.3187499999999) translate(118.10329861111111 30.73784722222222)"/></g><path d="M1124 589.3h240v60h-240z" stroke="#000" stroke-opacity="0" stroke-width="2" fill="#fff" fill-opacity="0"/><g><use xlink:href="#af" transform="matrix(1,0,0,1,1129,594.3002924369175) translate(86.61892361111111 30.73784722222222)"/><use xlink:href="#ae" transform="matrix(1,0,0,1,1129,594.3002924369175) translate(114.53559027777777 30.73784722222222)"/></g><defs><path d="M855-938c0-185-202-291-399-291H204v582h271c185 5 380-116 380-291zm130 0c0 214-192 369-387 402L895 0H743L456-517H204V0H72v-1355h384c256-7 529 172 529 417" id="ag"/><path d="M48-478c0-256 228-501 485-501 264 0 489 248 480 516H176c0 180 174 355 357 355 148 0 301-110 347-219l130 23C951-140 745 17 533 22 276 28 48-222 48-478zm815-115c-38-129-172-257-330-256-158 0-295 130-340 256h670zm-412-551l200-211h235l-377 268" id="ah"/><path d="M898-260C898-89 674 20 489 20 280 20 75-78 57-254l126-27c2 114 176 171 313 171 113 0 265-50 265-150 0-60-40-102-120-127-21-6-104-22-252-42-166-23-242-71-302-158-134-339 365-481 654-327 94 50 148 120 161 213l-126 27c-25-116-134-174-329-174-116 0-251 47-251 149 0 73 54 127 164 147 83 15 168 18 253 29 83 11 158 46 225 101 40 33 60 87 60 162" id="ai"/><path d="M483-108c191 0 291-169 291-370v-479h130V0H774v-137C701-31 604 22 483 22 219 22 67-183 67-456v-501h130v501c-4 182 112 348 286 348" id="aj"/><path d="M455-849c-173 0-251 180-251 371V0H74v-957h130v106c60-85 144-128 251-128 146 0 245 69 296 208 37-139 135-208 295-208 233 0 349 167 349 501V0h-130v-478c0-247-73-371-219-371-169 0-241 180-241 371V0H675l-1-478c0-247-73-371-219-371" id="ak"/><g id="a"><use transform="matrix(0.010850694444444444,0,0,0.010850694444444444,0,0)" xlink:href="#ag"/><use transform="matrix(0.010850694444444444,0,0,0.010850694444444444,11.903211805555555,0)" xlink:href="#ah"/><use transform="matrix(0.010850694444444444,0,0,0.010850694444444444,23.90407986111111,0)" xlink:href="#ai"/><use transform="matrix(0.010850694444444444,0,0,0.010850694444444444,34.787326388888886,0)" xlink:href="#aj"/><use transform="matrix(0.010850694444444444,0,0,0.010850694444444444,46.07204861111111,0)" xlink:href="#ak"/><use transform="matrix(0.010850694444444444,0,0,0.010850694444444444,62.85807291666666,0)" xlink:href="#ah"/></g><path d="M426-108c139 0 276-121 276-261v-856H508v-130h326v993c9 202-201 384-406 384C219 22 5-162 14-369v-126h130v132c-8 123 158 255 282 255" id="al"/><path d="M892-988c1-180-155-261-350-261-239 0-359 83-359 250 0 109 72 186 218 225 134 36 273 57 404 101 148 49 217 165 217 318 0 218-259 377-488 377C285 22 54-135 53-369h130c6 176 157 261 349 261 178 0 360-88 360-250 0-109-72-188-217-228-134-37-272-59-404-103C123-738 53-851 53-998c0-227 241-381 478-381 258 0 497 146 491 391H892" id="am"/><path d="M540-1249c-205 0-353 174-353 382v377c-5 208 148 382 353 382s353-174 353-382v-377c5-208-148-382-353-382zm0-130c272 0 483 251 483 528v345c8 277-211 528-483 528S57-229 57-506v-345c-8-277 211-528 483-528" id="an"/><path d="M227-1355L895-225v-1130h132V0H873L204-1135V0H72v-1355h155" id="ao"/><g id="b"><use transform="matrix(0.010850694444444444,0,0,0.010850694444444444,0,0)" xlink:href="#al"/><use transform="matrix(0.010850694444444444,0,0,0.010850694444444444,10.362413194444445,0)" xlink:href="#am"/><use transform="matrix(0.010850694444444444,0,0,0.010850694444444444,22.569444444444443,0)" xlink:href="#an"/><use transform="matrix(0.010850694444444444,0,0,0.010850694444444444,34.85243055555556,0)" xlink:href="#ao"/></g><path d="M-2-478c0-256 249-501 505-501 147 0 261 65 343 196v-572h132V0H846v-174C761-43 645 22 498 22 243 22-2-223-2-478zm843 0c0-191-151-371-338-371S128-665 128-478s183 370 370 370c188 0 343-180 343-370" id="ap"/><path d="M497-108c108 0 303-51 303-143v-220c-2 23-338 19-365 38-104 20-200 82-200 182 0 95 87 143 262 143zm28-871c161 0 405 100 405 248v579c0 27 16 41 48 44-1 21-3 64-5 129-72-4-122-33-151-87-82 59-188 88-318 88C233 22 97-70 97-253c0-145 124-253 248-288 70-20 368-9 427-58 17-9 27-25 29-46-1 7-1-13-1-60 0-84-168-147-260-147-166 0-269 58-309 174l-126-27c31-178 203-274 420-274" id="aq"/><path d="M406 0C279 4 176-105 176-232v-595H26v-130c75 0 120-17 137-51 9-17 13-69 13-155h130v206h241v130H306v595c0 70 49 105 146 105 18 0 78-3 95-3V0H406" id="ar"/><g id="c"><use transform="matrix(0.010850694444444444,0,0,0.010850694444444444,0,0)" xlink:href="#ap"/><use transform="matrix(0.010850694444444444,0,0,0.010850694444444444,12.076822916666666,0)" xlink:href="#aq"/><use transform="matrix(0.010850694444444444,0,0,0.010850694444444444,23.122829861111104,0)" xlink:href="#ar"/><use transform="matrix(0.010850694444444444,0,0,0.010850694444444444,29.763454861111104,0)" xlink:href="#aq"/></g><path d="M48-478c0-256 228-501 485-501 264 0 489 248 480 516H176c0 180 174 355 357 355 148 0 301-110 347-219l130 23C951-140 745 17 533 22 276 28 48-222 48-478zm815-115c-38-129-172-257-330-256-158 0-295 130-340 256h670zm-306-494l-377-268h235l200 211" id="as"/><g id="d"><use transform="matrix(0.010850694444444444,0,0,0.010850694444444444,0,0)" xlink:href="#ag"/><use transform="matrix(0.010850694444444444,0,0,0.010850694444444444,11.903211805555555,0)" xlink:href="#as"/><use transform="matrix(0.010850694444444444,0,0,0.010850694444444444,23.90407986111111,0)" xlink:href="#ai"/><use transform="matrix(0.010850694444444444,0,0,0.010850694444444444,34.787326388888886,0)" xlink:href="#aj"/><use transform="matrix(0.010850694444444444,0,0,0.010850694444444444,46.07204861111111,0)" xlink:href="#ak"/><use transform="matrix(0.010850694444444444,0,0,0.010850694444444444,62.85807291666666,0)" xlink:href="#as"/></g><g id="e"><use transform="matrix(0.010850694444444444,0,0,0.010850694444444444,0,0)" xlink:href="#al"/><use transform="matrix(0.010850694444444444,0,0,0.010850694444444444,10.362413194444445,0)" xlink:href="#am"/><use transform="matrix(0.010850694444444444,0,0,0.010850694444444444,22.569444444444443,0)" xlink:href="#an"/><use transform="matrix(0.010850694444444444,0,0,0.010850694444444444,34.85243055555556,0)" xlink:href="#ao"/></g><path d="M51-478c0-256 221-509 478-501 201 6 353 126 426 274H803c-71-96-163-144-274-144-189 0-348 180-348 372 0 191 160 369 348 369 100 0 189-44 266-132h155C852-65 712 22 529 22 275 22 51-223 51-478" id="at"/><path d="M543-849c-184 0-339 185-339 371V0H74v-1355h130v572c84-131 197-196 339-196 250 0 421 235 421 493V0H834v-478c4-195-107-371-291-371" id="au"/><path d="M52-478c0-256 228-501 485-501 264 0 489 248 480 516H180c0 180 174 355 357 355 148 0 301-110 347-219l130 23C955-140 749 17 537 22 280 28 52-222 52-478zm815-115c-38-129-172-257-330-256-158 0-295 130-340 256h670" id="av"/><g id="f"><use transform="matrix(0.010850694444444444,0,0,0.010850694444444444,0,0)" xlink:href="#am"/><use transform="matrix(0.010850694444444444,0,0,0.010850694444444444,12.20703125,0)" xlink:href="#at"/><use transform="matrix(0.010850694444444444,0,0,0.010850694444444444,23.96918402777778,0)" xlink:href="#au"/><use transform="matrix(0.010850694444444444,0,0,0.010850694444444444,35.525173611111114,0)" xlink:href="#av"/><use transform="matrix(0.010850694444444444,0,0,0.010850694444444444,47.73220486111111,0)" xlink:href="#ak"/><use transform="matrix(0.010850694444444444,0,0,0.010850694444444444,64.51822916666667,0)" xlink:href="#aq"/></g><path d="M178-957l334 813 331-813h142L595 0H424L33-957h145" id="aw"/><path d="M240-1205c-40 0-79-36-79-76s39-76 79-76c41 0 78 35 78 76s-37 76-78 76zM47-957h257V0H174v-827H47v-130" id="ax"/><path d="M86-1355h132V0H86v-1355" id="ay"/><path d="M253 269c88 1 142-24 163-75L519-65 33-957h148l400 735 292-735h140L555 194c-58 142-154 210-302 205V269" id="az"/><g id="g"><use transform="matrix(0.009765625,0,0,0.009765625,0,0)" xlink:href="#aw"/><use transform="matrix(0.009765625,0,0,0.009765625,10.556640625,0)" xlink:href="#ax"/><use transform="matrix(0.009765625,0,0,0.009765625,14.462890625,0)" xlink:href="#ai"/><use transform="matrix(0.009765625,0,0,0.009765625,24.2578125,0)" xlink:href="#aj"/><use transform="matrix(0.009765625,0,0,0.009765625,34.4140625,0)" xlink:href="#aq"/><use transform="matrix(0.009765625,0,0,0.009765625,44.82421875,0)" xlink:href="#ay"/><use transform="matrix(0.009765625,0,0,0.009765625,48.291015625,0)" xlink:href="#ay"/><use transform="matrix(0.009765625,0,0,0.009765625,51.7578125,0)" xlink:href="#az"/></g><path d="M922-478c0-187-188-371-375-371S209-669 209-478c0 190 155 370 343 370 187 0 370-183 370-370zm130 0c0 255-245 500-500 500-147 0-263-65-348-196V0H72v-1355h132v572c82-131 196-196 343-196 256 0 505 245 505 501" id="aA"/><g id="h"><use transform="matrix(0.009765625,0,0,0.009765625,0,0)" xlink:href="#av"/><use transform="matrix(0.009765625,0,0,0.009765625,10.986328125,0)" xlink:href="#ap"/><use transform="matrix(0.009765625,0,0,0.009765625,21.85546875,0)" xlink:href="#ax"/><use transform="matrix(0.009765625,0,0,0.009765625,25.76171875,0)" xlink:href="#ar"/><use transform="matrix(0.009765625,0,0,0.009765625,31.73828125,0)" xlink:href="#aq"/><use transform="matrix(0.009765625,0,0,0.009765625,42.1484375,0)" xlink:href="#aA"/><use transform="matrix(0.009765625,0,0,0.009765625,53.26171875,0)" xlink:href="#ay"/><use transform="matrix(0.009765625,0,0,0.009765625,56.728515625,0)" xlink:href="#av"/></g><g id="i"><use transform="matrix(0.010850694444444444,0,0,0.010850694444444444,0,0)" xlink:href="#al"/><use transform="matrix(0.010850694444444444,0,0,0.010850694444444444,10.362413194444445,0)" xlink:href="#am"/><use transform="matrix(0.010850694444444444,0,0,0.010850694444444444,22.569444444444443,0)" xlink:href="#an"/><use transform="matrix(0.010850694444444444,0,0,0.010850694444444444,34.85243055555556,0)" xlink:href="#ao"/></g><path d="M881-477c0-189-160-372-351-372-189 0-348 181-348 372s160 369 348 369 351-180 351-369zm-829-1c0-256 220-501 478-501 257 0 481 246 481 502S785 22 530 22C276 22 52-223 52-478" id="aB"/><path d="M550-827c-191 0-346 159-346 349V0H72v-957h132v174c85-116 198-174 339-174h204v174c-69-29-134-44-197-44" id="aC"/><g id="j"><use transform="matrix(0.010850694444444444,0,0,0.010850694444444444,0,0)" xlink:href="#av"/><use transform="matrix(0.010850694444444444,0,0,0.010850694444444444,12.20703125,0)" xlink:href="#ap"/><use transform="matrix(0.010850694444444444,0,0,0.010850694444444444,24.283854166666664,0)" xlink:href="#ax"/><use transform="matrix(0.010850694444444444,0,0,0.010850694444444444,28.624131944444443,0)" xlink:href="#ar"/><use transform="matrix(0.010850694444444444,0,0,0.010850694444444444,35.26475694444444,0)" xlink:href="#aB"/><use transform="matrix(0.010850694444444444,0,0,0.010850694444444444,47.47178819444444,0)" xlink:href="#aC"/></g><path d="M562-1192V0H397v-1192H1v-165h967v165H562" id="aD"/><path d="M816-616c-46-109-154-210-294-210-133 0-258 109-301 210h595zM31-484c0-260 230-507 491-507 282 0 495 254 487 541H196c10 148 163 311 326 306 147-5 277-104 326-215l166 28C947-150 753 16 522 21 260 27 31-223 31-484" id="aE"/><path d="M221-1357l296 510 300-510h192L618-685 1012 0H821L517-518C468-435 369-263 218 0H21l400-685c-87-149-217-373-391-672h191" id="aF"/><path d="M565-1357L165 0H-13l404-1357h174" id="aG"/><path d="M414-144c126 0 249-107 249-234v-814H475v-165h356v985c9 211-206 393-415 393C201 21-15-166-6-378v-142h166v147c-7 109 144 229 254 229" id="aH"/><path d="M481-991c226 7 428 115 428 329 0 99-50 175-149 230-58 32-156 64-295 95-121 27-191 52-212 74-23 25-35 57-38 98h682V0H47v-146c0-110 35-191 104-244 47-35 126-66 238-91 129-29 216-55 259-77 63-31 94-65 94-101 0-106-121-167-260-167-126 0-272 71-267 188H48c-6-217 206-360 433-353" id="aI"/><g id="k"><use transform="matrix(0.010850694444444444,0,0,0.010850694444444444,0,0)" xlink:href="#aD"/><use transform="matrix(0.010850694444444444,0,0,0.010850694444444444,11.827256944444445,0)" xlink:href="#aE"/><use transform="matrix(0.010850694444444444,0,0,0.010850694444444444,24.35980902777778,0)" xlink:href="#aF"/><use transform="matrix(0.010850694444444444,0,0,0.010850694444444444,36.935763888888886,0)" xlink:href="#aG"/><use transform="matrix(0.010850694444444444,0,0,0.010850694444444444,43.78255208333333,0)" xlink:href="#aH"/><use transform="matrix(0.010850694444444444,0,0,0.010850694444444444,54.47048611111111,0)" xlink:href="#aI"/></g><path d="M209-478c0 191 154 370 342 370 187 0 348-181 348-370S737-849 551-849c-188 0-342 180-342 371zm820 0c0 258-224 500-478 500-147 0-262-65-347-196v573H74V-957h130v174c85-131 200-196 347-196 256 0 478 244 478 501" id="aJ"/><g id="l"><use transform="matrix(0.010850694444444444,0,0,0.010850694444444444,0,0)" xlink:href="#ar"/><use transform="matrix(0.010850694444444444,0,0,0.010850694444444444,6.640625,0)" xlink:href="#av"/><use transform="matrix(0.010850694444444444,0,0,0.010850694444444444,18.84765625,0)" xlink:href="#ak"/><use transform="matrix(0.010850694444444444,0,0,0.010850694444444444,35.63368055555556,0)" xlink:href="#aJ"/><use transform="matrix(0.010850694444444444,0,0,0.010850694444444444,47.71050347222222,0)" xlink:href="#ay"/><use transform="matrix(0.010850694444444444,0,0,0.010850694444444444,51.5625,0)" xlink:href="#aq"/><use transform="matrix(0.010850694444444444,0,0,0.010850694444444444,62.60850694444444,0)" xlink:href="#ar"/><use transform="matrix(0.010850694444444444,0,0,0.010850694444444444,69.24913194444444,0)" xlink:href="#av"/></g><path d="M223-484c0 174 142 340 313 340 169 0 319-168 319-340 0-174-147-342-319-342-173 0-313 166-313 342zm798 0c0 261-225 505-485 505-129 0-235-50-318-149v516H53V-970h165v128c83-99 189-149 318-149 260 0 485 246 485 507" id="aK"/><path d="M484-144c91 0 275-43 275-120v-184c-54 18-283 13-339 27-84 21-172 73-172 157 0 80 79 120 236 120zm27-847c168 0 413 106 413 260v563c0 15 16 23 48 26-4 64-6 118-6 163-81-4-138-29-172-76-80 51-181 76-304 76C213 21 75-75 75-266c0-155 132-276 270-302-15-8 340-16 395-49 13-7 20-20 21-39-1 24-2 8-2-49 0-71-154-124-234-124-152 0-248 58-288 173L79-690c32-191 203-301 432-301" id="aL"/><path d="M530-826c-179 0-312 160-312 342V0H53v-970h165v127c78-99 182-148 312-148 289 0 456 203 456 499V0H819v-484c2-203-95-342-289-342" id="aM"/><path d="M860-484c0-175-137-342-310-342-172 0-345 169-345 342s167 340 340 340c172 0 315-166 315-340zm-820 0c0-260 250-507 510-507 131 0 236 50 315 149v-515h167V0H865v-128C782-29 675 21 545 21 285 21 40-224 40-484" id="aN"/><path d="M838-484c0-173-151-342-322-342-177 0-319 167-319 342 0 176 146 340 319 340 171 0 322-167 322-340zm-807 0c0-265 224-507 485-507 260 0 487 246 487 507 0 260-229 505-487 505C255 21 31-224 31-484" id="aO"/><path d="M30-484c0-265 224-507 485-507 196 0 345 102 446 305H770c-63-93-148-140-255-140-177 0-319 167-319 342 0 176 146 340 319 340 93 0 176-43 249-128h193C846-77 699 21 515 21 254 21 30-224 30-484" id="aP"/><g id="m"><use transform="matrix(0.010850694444444444,0,0,0.010850694444444444,0,0)" xlink:href="#aK"/><use transform="matrix(0.010850694444444444,0,0,0.010850694444444444,12.40234375,0)" xlink:href="#aL"/><use transform="matrix(0.010850694444444444,0,0,0.010850694444444444,24.29470486111111,0)" xlink:href="#aM"/><use transform="matrix(0.010850694444444444,0,0,0.010850694444444444,36.740451388888886,0)" xlink:href="#aN"/><use transform="matrix(0.010850694444444444,0,0,0.010850694444444444,49.8046875,0)" xlink:href="#aO"/><use transform="matrix(0.010850694444444444,0,0,0.010850694444444444,62.33723958333333,0)" xlink:href="#aP"/></g><path d="M554-1355L155 0H14l403-1355h137" id="aQ"/><g id="n"><use transform="matrix(0.009765625,0,0,0.009765625,0,0)" xlink:href="#av"/><use transform="matrix(0.009765625,0,0,0.009765625,10.986328125,0)" xlink:href="#ai"/><use transform="matrix(0.009765625,0,0,0.009765625,20.78125,0)" xlink:href="#at"/><use transform="matrix(0.009765625,0,0,0.009765625,31.3671875,0)" xlink:href="#aq"/><use transform="matrix(0.009765625,0,0,0.009765625,41.77734375,0)" xlink:href="#aJ"/><use transform="matrix(0.009765625,0,0,0.009765625,52.646484375,0)" xlink:href="#av"/><use transform="matrix(0.009765625,0,0,0.009765625,63.6328125,0)" xlink:href="#aQ"/><use transform="matrix(0.009765625,0,0,0.009765625,69.501953125,0)" xlink:href="#aJ"/><use transform="matrix(0.009765625,0,0,0.009765625,80.37109375,0)" xlink:href="#aC"/><use transform="matrix(0.009765625,0,0,0.009765625,87.958984375,0)" xlink:href="#av"/><use transform="matrix(0.009765625,0,0,0.009765625,98.9453125,0)" xlink:href="#aJ"/><use transform="matrix(0.009765625,0,0,0.009765625,109.814453125,0)" xlink:href="#aC"/><use transform="matrix(0.009765625,0,0,0.009765625,117.08984375,0)" xlink:href="#aB"/><use transform="matrix(0.009765625,0,0,0.009765625,128.076171875,0)" xlink:href="#at"/><use transform="matrix(0.009765625,0,0,0.009765625,138.662109375,0)" xlink:href="#av"/><use transform="matrix(0.009765625,0,0,0.009765625,149.6484375,0)" xlink:href="#ai"/><use transform="matrix(0.009765625,0,0,0.009765625,159.443359375,0)" xlink:href="#ai"/></g><path d="M204-656l437-331 87 99-330 254L782 0H626L289-554l-85 65V0H72v-1355h132v699" id="aR"/><path d="M395 0L60-957h137l259 739 167-476-93-263h137l262 744 258-744h138L991 0H866L692-498 516 0H395" id="aS"/><path d="M545-849c-196 0-341 171-341 371V0H74v-957h130v174c77-131 190-196 341-196 285 0 449 200 449 493V0H862v-478c2-219-106-371-317-371" id="aT"/><g id="o"><use transform="matrix(0.009765625,0,0,0.009765625,0,0)" xlink:href="#ak"/><use transform="matrix(0.009765625,0,0,0.009765625,15.107421875,0)" xlink:href="#aq"/><use transform="matrix(0.009765625,0,0,0.009765625,25.517578125,0)" xlink:href="#aC"/><use transform="matrix(0.009765625,0,0,0.009765625,33.88671875,0)" xlink:href="#aR"/><use transform="matrix(0.009765625,0,0,0.009765625,42.12890625,0)" xlink:href="#ap"/><use transform="matrix(0.009765625,0,0,0.009765625,52.998046875,0)" xlink:href="#aB"/><use transform="matrix(0.009765625,0,0,0.009765625,63.046875,0)" xlink:href="#aS"/><use transform="matrix(0.009765625,0,0,0.009765625,77.099609375,0)" xlink:href="#aT"/></g><g id="p"><use transform="matrix(0.009765625,0,0,0.009765625,0,0)" xlink:href="#ar"/><use transform="matrix(0.009765625,0,0,0.009765625,5.9765625,0)" xlink:href="#aB"/></g><path d="M224-957l269 369 270-369h164L577-475 927 0H760L493-366 227 0H61l352-475L61-957h163" id="aU"/><g id="q"><use transform="matrix(0.009765625,0,0,0.009765625,0,0)" xlink:href="#ar"/><use transform="matrix(0.009765625,0,0,0.009765625,5.9765625,0)" xlink:href="#av"/><use transform="matrix(0.009765625,0,0,0.009765625,16.962890625,0)" xlink:href="#aU"/></g><path d="M267-1203c-40 0-79-36-79-76s39-76 79-76c41 0 78 35 78 76s-37 76-78 76zM11 265c103 3 189-67 189-167v-923c-41-1-88 3-126-2v-130h257L330 98c5 177-143 304-319 301V265" id="aV"/><path d="M494-979c203 0 420 127 420 319 0 109-70 192-210 251-53 22-170 52-351 90-101 22-152 85-152 189h701V0H68v-130c0-167 83-269 250-305 133-28 223-50 271-67 129-45 194-97 194-158 0-133-117-186-288-189-126-2-301 76-294 193H69c-7-196 219-323 425-323" id="aW"/><g id="r"><use transform="matrix(0.010850694444444444,0,0,0.010850694444444444,0,0)" xlink:href="#al"/><use transform="matrix(0.010850694444444444,0,0,0.010850694444444444,10.362413194444445,0)" xlink:href="#ax"/><use transform="matrix(0.010850694444444444,0,0,0.010850694444444444,14.702690972222221,0)" xlink:href="#aT"/><use transform="matrix(0.010850694444444444,0,0,0.010850694444444444,26.822916666666664,0)" xlink:href="#aV"/><use transform="matrix(0.010850694444444444,0,0,0.010850694444444444,31.38020833333333,0)" xlink:href="#aq"/><use transform="matrix(0.010850694444444444,0,0,0.010850694444444444,42.94704861111111,0)" xlink:href="#aW"/></g><g id="s"><use transform="matrix(0.010850694444444444,0,0,0.010850694444444444,0,0)" xlink:href="#aC"/><use transform="matrix(0.010850694444444444,0,0,0.010850694444444444,8.430989583333334,0)" xlink:href="#av"/><use transform="matrix(0.010850694444444444,0,0,0.010850694444444444,20.638020833333336,0)" xlink:href="#aT"/><use transform="matrix(0.010850694444444444,0,0,0.010850694444444444,32.75824652777778,0)" xlink:href="#ap"/><use transform="matrix(0.010850694444444444,0,0,0.010850694444444444,44.83506944444444,0)" xlink:href="#av"/><use transform="matrix(0.010850694444444444,0,0,0.010850694444444444,57.04210069444444,0)" xlink:href="#aC"/></g><path d="M216-1355l315 543 320-543h152L612-684 1006 0H855L531-551 213 0H57l399-684-391-671h151" id="aX"/><path d="M204-1355v1225h596V0H74v-1355h130" id="aY"/><path d="M558-1225V0H428v-1225H21v-130h954v130H558" id="aZ"/><g id="t"><use transform="matrix(0.010850694444444444,0,0,0.010850694444444444,0,0)" xlink:href="#aX"/><use transform="matrix(0.010850694444444444,0,0,0.010850694444444444,12.250434027777777,0)" xlink:href="#av"/><use transform="matrix(0.010850694444444444,0,0,0.010850694444444444,24.45746527777778,0)" xlink:href="#aY"/><use transform="matrix(0.010850694444444444,0,0,0.010850694444444444,34.34244791666667,0)" xlink:href="#aq"/><use transform="matrix(0.010850694444444444,0,0,0.010850694444444444,45.90928819444445,0)" xlink:href="#aZ"/><use transform="matrix(0.010850694444444444,0,0,0.010850694444444444,57.41102430555555,0)" xlink:href="#av"/><use transform="matrix(0.010850694444444444,0,0,0.010850694444444444,69.61805555555556,0)" xlink:href="#aX"/></g><g id="u"><use transform="matrix(0.010850694444444444,0,0,0.010850694444444444,0,0)" xlink:href="#aY"/><use transform="matrix(0.010850694444444444,0,0,0.010850694444444444,9.88498263888889,0)" xlink:href="#aq"/><use transform="matrix(0.010850694444444444,0,0,0.010850694444444444,21.451822916666664,0)" xlink:href="#aZ"/><use transform="matrix(0.010850694444444444,0,0,0.010850694444444444,32.95355902777777,0)" xlink:href="#av"/><use transform="matrix(0.010850694444444444,0,0,0.010850694444444444,45.16059027777778,0)" xlink:href="#aX"/></g><path d="M985-938c0 247-271 428-529 421H204V0H72v-1355h384c256-7 529 172 529 417zm-130 0c0-191-192-287-399-287H204v578h252c200 4 399-104 399-291" id="ba"/><path d="M848-827c4-216-138-398-348-398H204v1095h296c203 6 348-189 348-398v-299zm130 299C987-254 769 0 500 0H74v-1355h426c267-9 478 255 478 528v299" id="bb"/><path d="M865-1355v130H204v424h531v134H204V0H74v-1355h791" id="bc"/><g id="v"><use transform="matrix(0.010850694444444444,0,0,0.010850694444444444,0,0)" xlink:href="#ba"/><use transform="matrix(0.010850694444444444,0,0,0.010850694444444444,11.50173611111111,0)" xlink:href="#bb"/><use transform="matrix(0.010850694444444444,0,0,0.010850694444444444,23.404947916666664,0)" xlink:href="#bc"/></g><g id="w"><use transform="matrix(0.010850694444444444,0,0,0.010850694444444444,0,0)" xlink:href="#aC"/><use transform="matrix(0.010850694444444444,0,0,0.010850694444444444,8.430989583333334,0)" xlink:href="#av"/><use transform="matrix(0.010850694444444444,0,0,0.010850694444444444,20.638020833333336,0)" xlink:href="#aT"/><use transform="matrix(0.010850694444444444,0,0,0.010850694444444444,32.75824652777778,0)" xlink:href="#ap"/><use transform="matrix(0.010850694444444444,0,0,0.010850694444444444,44.83506944444444,0)" xlink:href="#av"/><use transform="matrix(0.010850694444444444,0,0,0.010850694444444444,57.04210069444444,0)" xlink:href="#aC"/></g><path d="M180-1357L494-312c71-232 178-580 319-1045h172L579 0H412L6-1357h174" id="bd"/><path d="M470-144c172 0 264-158 264-340v-486h165V0H734v-96C656-18 568 21 470 21 202 21 46-186 46-463v-507h165v507c-4 167 99 319 259 319" id="be"/><path d="M32-990c0-232 243-390 485-390 230 0 384 80 460 242 25 53 37 112 37 177H848c0-169-110-254-331-254-175 0-321 66-320 224 0 68 25 124 82 157 72 43 313 83 425 114 184 50 303 136 310 344 8 234-251 397-495 397C251 21 32-142 31-398h166c5 169 112 254 321 254 161 0 330-78 330-223 0-98-70-169-211-207-131-36-266-59-393-103C99-727 32-841 32-990" id="bf"/><g id="x"><use transform="matrix(0.010850694444444444,0,0,0.010850694444444444,0,0)" xlink:href="#bd"/><use transform="matrix(0.010850694444444444,0,0,0.010850694444444444,12.055121527777777,0)" xlink:href="#be"/><use transform="matrix(0.010850694444444444,0,0,0.010850694444444444,23.665364583333332,0)" xlink:href="#aE"/><use transform="matrix(0.010850694444444444,0,0,0.010850694444444444,36.197916666666664,0)" xlink:href="#aH"/><use transform="matrix(0.010850694444444444,0,0,0.010850694444444444,46.88585069444444,0)" xlink:href="#bf"/></g><g id="y"><use transform="matrix(0.010850694444444444,0,0,0.010850694444444444,0,0)" xlink:href="#ar"/><use transform="matrix(0.010850694444444444,0,0,0.010850694444444444,6.640625,0)" xlink:href="#av"/><use transform="matrix(0.010850694444444444,0,0,0.010850694444444444,18.84765625,0)" xlink:href="#ak"/><use transform="matrix(0.010850694444444444,0,0,0.010850694444444444,35.63368055555556,0)" xlink:href="#aJ"/><use transform="matrix(0.010850694444444444,0,0,0.010850694444444444,47.71050347222222,0)" xlink:href="#ay"/><use transform="matrix(0.010850694444444444,0,0,0.010850694444444444,51.5625,0)" xlink:href="#aq"/><use transform="matrix(0.010850694444444444,0,0,0.010850694444444444,62.60850694444444,0)" xlink:href="#ar"/><use transform="matrix(0.010850694444444444,0,0,0.010850694444444444,69.24913194444444,0)" xlink:href="#av"/></g><g id="z"><use transform="matrix(0.010850694444444444,0,0,0.010850694444444444,0,0)" xlink:href="#at"/><use transform="matrix(0.010850694444444444,0,0,0.010850694444444444,11.762152777777777,0)" xlink:href="#aB"/><use transform="matrix(0.010850694444444444,0,0,0.010850694444444444,23.96918402777778,0)" xlink:href="#ak"/><use transform="matrix(0.010850694444444444,0,0,0.010850694444444444,40.75520833333333,0)" xlink:href="#aJ"/><use transform="matrix(0.010850694444444444,0,0,0.010850694444444444,52.832031249999986,0)" xlink:href="#aB"/><use transform="matrix(0.010850694444444444,0,0,0.010850694444444444,65.0390625,0)" xlink:href="#aT"/><use transform="matrix(0.010850694444444444,0,0,0.010850694444444444,77.15928819444444,0)" xlink:href="#av"/><use transform="matrix(0.010850694444444444,0,0,0.010850694444444444,89.36631944444444,0)" xlink:href="#aT"/><use transform="matrix(0.010850694444444444,0,0,0.010850694444444444,101.48654513888889,0)" xlink:href="#ar"/></g><g id="A"><use transform="matrix(0.010850694444444444,0,0,0.010850694444444444,0,0)" xlink:href="#aA"/><use transform="matrix(0.010850694444444444,0,0,0.010850694444444444,12.348090277777777,0)" xlink:href="#aj"/><use transform="matrix(0.010850694444444444,0,0,0.010850694444444444,23.6328125,0)" xlink:href="#ay"/><use transform="matrix(0.010850694444444444,0,0,0.010850694444444444,27.48480902777778,0)" xlink:href="#ak"/><use transform="matrix(0.010850694444444444,0,0,0.010850694444444444,44.27083333333333,0)" xlink:href="#aq"/></g><path d="M540 22C268 22 57-229 57-506v-345c-8-277 211-528 483-528 249 0 439 198 473 423H885c-28-159-165-293-345-293-205 0-353 174-353 382v377c-5 208 148 382 353 382 180 0 318-134 345-293h128C979-176 789 22 540 22" id="bg"/><g id="B"><use transform="matrix(0.010850694444444444,0,0,0.010850694444444444,0,0)" xlink:href="#bg"/><use transform="matrix(0.010850694444444444,0,0,0.010850694444444444,11.979166666666666,0)" xlink:href="#am"/><use transform="matrix(0.010850694444444444,0,0,0.010850694444444444,24.186197916666664,0)" xlink:href="#am"/></g><path d="M431-1222c-103-2-191 65-188 167v98h188v130H243V0H111v-827H33v-130h78c-7-146 8-241 94-317 61-53 135-81 226-81v133" id="bh"/><g id="C"><use transform="matrix(0.010850694444444444,0,0,0.010850694444444444,0,0)" xlink:href="#bh"/><use transform="matrix(0.010850694444444444,0,0,0.010850694444444444,5.262586805555555,0)" xlink:href="#aC"/><use transform="matrix(0.010850694444444444,0,0,0.010850694444444444,13.69357638888889,0)" xlink:href="#aq"/><use transform="matrix(0.010850694444444444,0,0,0.010850694444444444,25.260416666666664,0)" xlink:href="#ak"/><use transform="matrix(0.010850694444444444,0,0,0.010850694444444444,42.046440972222214,0)" xlink:href="#av"/><use transform="matrix(0.010850694444444444,0,0,0.010850694444444444,53.73263888888888,0)" xlink:href="#aS"/><use transform="matrix(0.010850694444444444,0,0,0.010850694444444444,68.30512152777777,0)" xlink:href="#aB"/><use transform="matrix(0.010850694444444444,0,0,0.010850694444444444,80.51215277777777,0)" xlink:href="#aC"/><use transform="matrix(0.010850694444444444,0,0,0.010850694444444444,89.81119791666666,0)" xlink:href="#aR"/></g><g id="D"><use transform="matrix(0.010850694444444444,0,0,0.010850694444444444,0,0)" xlink:href="#aS"/><use transform="matrix(0.010850694444444444,0,0,0.010850694444444444,15.614149305555555,0)" xlink:href="#av"/><use transform="matrix(0.010850694444444444,0,0,0.010850694444444444,27.82118055555556,0)" xlink:href="#aA"/><use transform="matrix(0.010850694444444444,0,0,0.010850694444444444,40.169270833333336,0)" xlink:href="#aJ"/><use transform="matrix(0.010850694444444444,0,0,0.010850694444444444,52.24609375,0)" xlink:href="#aq"/><use transform="matrix(0.010850694444444444,0,0,0.010850694444444444,63.81293402777778,0)" xlink:href="#at"/><use transform="matrix(0.010850694444444444,0,0,0.010850694444444444,75.57508680555556,0)" xlink:href="#aR"/></g><g id="E"><use transform="matrix(0.010850694444444444,0,0,0.010850694444444444,0,0)" xlink:href="#aA"/><use transform="matrix(0.010850694444444444,0,0,0.010850694444444444,12.348090277777777,0)" xlink:href="#aj"/><use transform="matrix(0.010850694444444444,0,0,0.010850694444444444,23.6328125,0)" xlink:href="#ax"/><use transform="matrix(0.010850694444444444,0,0,0.010850694444444444,27.973090277777775,0)" xlink:href="#ay"/><use transform="matrix(0.010850694444444444,0,0,0.010850694444444444,31.82508680555556,0)" xlink:href="#ap"/></g><path d="M1188-1355h137L1082 0H941L688-1071 431 0H296L53-1355h135L376-296l246-1059h129l252 1059" id="bi"/><g id="F"><use transform="matrix(0.010850694444444444,0,0,0.010850694444444444,0,0)" xlink:href="#bi"/><use transform="matrix(0.010850694444444444,0,0,0.010850694444444444,15.831163194444445,0)" xlink:href="#av"/><use transform="matrix(0.010850694444444444,0,0,0.010850694444444444,28.038194444444443,0)" xlink:href="#aA"/></g><g id="G"><use transform="matrix(0.010850694444444444,0,0,0.010850694444444444,0,0)" xlink:href="#aC"/><use transform="matrix(0.010850694444444444,0,0,0.010850694444444444,8.430989583333334,0)" xlink:href="#av"/><use transform="matrix(0.010850694444444444,0,0,0.010850694444444444,20.638020833333336,0)" xlink:href="#ai"/><use transform="matrix(0.010850694444444444,0,0,0.010850694444444444,31.521267361111114,0)" xlink:href="#aJ"/><use transform="matrix(0.010850694444444444,0,0,0.010850694444444444,43.59809027777778,0)" xlink:href="#aB"/><use transform="matrix(0.010850694444444444,0,0,0.010850694444444444,55.80512152777778,0)" xlink:href="#aT"/><use transform="matrix(0.010850694444444444,0,0,0.010850694444444444,67.92534722222223,0)" xlink:href="#ai"/><use transform="matrix(0.010850694444444444,0,0,0.010850694444444444,78.80859375,0)" xlink:href="#ax"/><use transform="matrix(0.010850694444444444,0,0,0.010850694444444444,83.14887152777777,0)" xlink:href="#aw"/><use transform="matrix(0.010850694444444444,0,0,0.010850694444444444,94.01041666666666,0)" xlink:href="#av"/></g><path d="M177-478c0 192 146 370 333 370s324-179 324-370c0-193-136-371-324-371-187 0-333 180-333 371zm332 742c191 3 334-157 330-347v-91C756-43 647 22 510 22 246 22 47-209 47-478c0-259 208-501 463-501 140 0 250 67 329 201v-179h130v888c6 260-201 463-461 463C272 394 95 221 61 14L188-7c30 151 149 268 321 271" id="bj"/><g id="H"><use transform="matrix(0.010850694444444444,0,0,0.010850694444444444,0,0)" xlink:href="#aJ"/><use transform="matrix(0.010850694444444444,0,0,0.010850694444444444,12.076822916666666,0)" xlink:href="#aq"/><use transform="matrix(0.010850694444444444,0,0,0.010850694444444444,23.643663194444443,0)" xlink:href="#bj"/><use transform="matrix(0.010850694444444444,0,0,0.010850694444444444,35.57942708333333,0)" xlink:href="#av"/></g><g id="I"><use transform="matrix(0.009765625,0,0,0.009765625,0,0)" xlink:href="#au"/><use transform="matrix(0.009765625,0,0,0.009765625,10.263671875,0)" xlink:href="#ar"/><use transform="matrix(0.009765625,0,0,0.009765625,16.240234375,0)" xlink:href="#ak"/><use transform="matrix(0.009765625,0,0,0.009765625,31.34765625,0)" xlink:href="#ay"/></g><path d="M1018-991c257 0 359 224 359 507V0h-166v-484c0-228-64-342-193-342-155-1-215 166-215 342V0H637l-1-484c0-228-64-342-193-342-159-1-225 164-225 342V0H53v-970h165v68c59-59 134-89 225-89 133 0 229 56 286 168 46-112 142-168 289-168" id="bk"/><path d="M535-805c-177 0-317 145-317 321V0H51v-970h167v134c85-89 189-134 310-134h218v218c-83-35-153-53-211-53" id="bl"/><path d="M218-698l409-308 109 126-324 249C497-490 624-280 795 0H598L276-530l-58 45V0H51v-1357h167v659" id="bm"/><path d="M371 0L31-970h174l239 678 141-402c-21-61-54-153-98-276h176l241 683 237-683h175C1197-634 1100-340 976 0H829L673-444c-35 99-88 247-157 444H371" id="bn"/><g id="J"><use transform="matrix(0.010850694444444444,0,0,0.010850694444444444,0,0)" xlink:href="#bk"/><use transform="matrix(0.010850694444444444,0,0,0.010850694444444444,17.11154513888889,0)" xlink:href="#aL"/><use transform="matrix(0.010850694444444444,0,0,0.010850694444444444,29.00390625,0)" xlink:href="#bl"/><use transform="matrix(0.010850694444444444,0,0,0.010850694444444444,38.62847222222222,0)" xlink:href="#bm"/><use transform="matrix(0.010850694444444444,0,0,0.010850694444444444,48.111979166666664,0)" xlink:href="#aN"/><use transform="matrix(0.010850694444444444,0,0,0.010850694444444444,61.17621527777778,0)" xlink:href="#aO"/><use transform="matrix(0.010850694444444444,0,0,0.010850694444444444,72.66710069444444,0)" xlink:href="#bn"/><use transform="matrix(0.010850694444444444,0,0,0.010850694444444444,88.60677083333333,0)" xlink:href="#aM"/><use transform="matrix(0.010850694444444444,0,0,0.010850694444444444,101.05251736111111,0)" xlink:href="#aG"/><use transform="matrix(0.010850694444444444,0,0,0.010850694444444444,107.89930555555556,0)" xlink:href="#aH"/><use transform="matrix(0.010850694444444444,0,0,0.010850694444444444,118.58723958333331,0)" xlink:href="#aI"/></g><g id="K"><use transform="matrix(0.010850694444444444,0,0,0.010850694444444444,0,0)" xlink:href="#ar"/><use transform="matrix(0.010850694444444444,0,0,0.010850694444444444,6.640625,0)" xlink:href="#av"/><use transform="matrix(0.010850694444444444,0,0,0.010850694444444444,18.84765625,0)" xlink:href="#ak"/><use transform="matrix(0.010850694444444444,0,0,0.010850694444444444,35.63368055555556,0)" xlink:href="#aJ"/><use transform="matrix(0.010850694444444444,0,0,0.010850694444444444,47.71050347222222,0)" xlink:href="#ay"/><use transform="matrix(0.010850694444444444,0,0,0.010850694444444444,51.5625,0)" xlink:href="#aq"/><use transform="matrix(0.010850694444444444,0,0,0.010850694444444444,62.60850694444444,0)" xlink:href="#ar"/><use transform="matrix(0.010850694444444444,0,0,0.010850694444444444,69.24913194444444,0)" xlink:href="#av"/></g><g id="L"><use transform="matrix(0.010850694444444444,0,0,0.010850694444444444,0,0)" xlink:href="#aJ"/><use transform="matrix(0.010850694444444444,0,0,0.010850694444444444,12.076822916666666,0)" xlink:href="#aq"/><use transform="matrix(0.010850694444444444,0,0,0.010850694444444444,23.643663194444443,0)" xlink:href="#aT"/><use transform="matrix(0.010850694444444444,0,0,0.010850694444444444,35.763888888888886,0)" xlink:href="#ap"/><use transform="matrix(0.010850694444444444,0,0,0.010850694444444444,47.84071180555556,0)" xlink:href="#aB"/><use transform="matrix(0.010850694444444444,0,0,0.010850694444444444,60.04774305555555,0)" xlink:href="#at"/></g><g id="M"><use transform="matrix(0.010850694444444444,0,0,0.010850694444444444,0,0)" xlink:href="#aJ"/><use transform="matrix(0.010850694444444444,0,0,0.010850694444444444,12.076822916666666,0)" xlink:href="#ay"/><use transform="matrix(0.010850694444444444,0,0,0.010850694444444444,15.928819444444445,0)" xlink:href="#aq"/><use transform="matrix(0.010850694444444444,0,0,0.010850694444444444,27.49565972222222,0)" xlink:href="#ax"/><use transform="matrix(0.010850694444444444,0,0,0.010850694444444444,31.8359375,0)" xlink:href="#aT"/></g><path d="M204-1355v708h570v-708h130V0H774v-517H204V0H74v-1355h130" id="bo"/><path d="M204-1131V0H72v-1355h167l417 834 417-834h172V0h-133v-1131L732-373H584" id="bp"/><path d="M767-88c0-183-157-292-347-292-99 0-178 30-239 91H74v-668h673v130H204v366c308-152 693 59 693 373 0 280-200 487-480 487-131 0-247-48-347-145V50c60 112 190 215 345 219 198 5 352-159 352-357" id="bq"/><g id="N"><use transform="matrix(0.010850694444444444,0,0,0.010850694444444444,0,0)" xlink:href="#bo"/><use transform="matrix(0.010850694444444444,0,0,0.010850694444444444,11.284722222222221,0)" xlink:href="#aZ"/><use transform="matrix(0.010850694444444444,0,0,0.010850694444444444,22.786458333333332,0)" xlink:href="#bp"/><use transform="matrix(0.010850694444444444,0,0,0.010850694444444444,37.92317708333333,0)" xlink:href="#aY"/><use transform="matrix(0.010850694444444444,0,0,0.010850694444444444,47.80815972222221,0)" xlink:href="#bq"/></g><g id="O"><use transform="matrix(0.010850694444444444,0,0,0.010850694444444444,0,0)" xlink:href="#an"/><use transform="matrix(0.010850694444444444,0,0,0.010850694444444444,12.28298611111111,0)" xlink:href="#bh"/><use transform="matrix(0.010850694444444444,0,0,0.010850694444444444,17.545572916666664,0)" xlink:href="#bh"/><use transform="matrix(0.010850694444444444,0,0,0.010850694444444444,22.80815972222222,0)" xlink:href="#ax"/><use transform="matrix(0.010850694444444444,0,0,0.010850694444444444,27.1484375,0)" xlink:href="#at"/><use transform="matrix(0.010850694444444444,0,0,0.010850694444444444,38.91059027777778,0)" xlink:href="#av"/></g><g id="P"><use transform="matrix(0.010850694444444444,0,0,0.010850694444444444,0,0)" xlink:href="#bi"/><use transform="matrix(0.010850694444444444,0,0,0.010850694444444444,15.831163194444445,0)" xlink:href="#aB"/><use transform="matrix(0.010850694444444444,0,0,0.010850694444444444,28.038194444444443,0)" xlink:href="#aC"/><use transform="matrix(0.010850694444444444,0,0,0.010850694444444444,37.33723958333333,0)" xlink:href="#ap"/></g><g id="Q"><use transform="matrix(0.010850694444444444,0,0,0.010850694444444444,0,0)" xlink:href="#ap"/><use transform="matrix(0.010850694444444444,0,0,0.010850694444444444,12.076822916666666,0)" xlink:href="#aB"/><use transform="matrix(0.010850694444444444,0,0,0.010850694444444444,24.283854166666664,0)" xlink:href="#at"/><use transform="matrix(0.010850694444444444,0,0,0.010850694444444444,36.04600694444444,0)" xlink:href="#aU"/></g><g id="R"><use transform="matrix(0.009765625,0,0,0.009765625,0,0)" xlink:href="#bb"/><use transform="matrix(0.009765625,0,0,0.009765625,10.712890625,0)" xlink:href="#aq"/><use transform="matrix(0.009765625,0,0,0.009765625,20.654296875,0)" xlink:href="#ar"/><use transform="matrix(0.009765625,0,0,0.009765625,26.630859375,0)" xlink:href="#aq"/></g><g id="S"><use transform="matrix(0.009765625,0,0,0.009765625,0,0)" xlink:href="#am"/><use transform="matrix(0.009765625,0,0,0.009765625,10.986328125,0)" xlink:href="#aB"/><use transform="matrix(0.009765625,0,0,0.009765625,21.97265625,0)" xlink:href="#aj"/><use transform="matrix(0.009765625,0,0,0.009765625,32.12890625,0)" xlink:href="#aC"/><use transform="matrix(0.009765625,0,0,0.009765625,40.498046875,0)" xlink:href="#at"/><use transform="matrix(0.009765625,0,0,0.009765625,51.083984375,0)" xlink:href="#av"/></g><g id="T"><use transform="matrix(0.009765625,0,0,0.009765625,0,0)" xlink:href="#ba"/><use transform="matrix(0.009765625,0,0,0.009765625,10.3515625,0)" xlink:href="#aC"/><use transform="matrix(0.009765625,0,0,0.009765625,17.939453125,0)" xlink:href="#av"/><use transform="matrix(0.009765625,0,0,0.009765625,28.92578125,0)" xlink:href="#aJ"/><use transform="matrix(0.009765625,0,0,0.009765625,39.794921875,0)" xlink:href="#aC"/><use transform="matrix(0.009765625,0,0,0.009765625,47.0703125,0)" xlink:href="#aB"/><use transform="matrix(0.009765625,0,0,0.009765625,58.056640625,0)" xlink:href="#at"/><use transform="matrix(0.009765625,0,0,0.009765625,68.642578125,0)" xlink:href="#av"/><use transform="matrix(0.009765625,0,0,0.009765625,79.62890625,0)" xlink:href="#ai"/><use transform="matrix(0.009765625,0,0,0.009765625,89.423828125,0)" xlink:href="#ai"/><use transform="matrix(0.009765625,0,0,0.009765625,99.21875,0)" xlink:href="#ax"/><use transform="matrix(0.009765625,0,0,0.009765625,103.125,0)" xlink:href="#aT"/><use transform="matrix(0.009765625,0,0,0.009765625,114.033203125,0)" xlink:href="#bj"/></g><g id="U"><use transform="matrix(0.009765625,0,0,0.009765625,0,0)" xlink:href="#aq"/><use transform="matrix(0.009765625,0,0,0.009765625,10.41015625,0)" xlink:href="#aT"/><use transform="matrix(0.009765625,0,0,0.009765625,21.318359375,0)" xlink:href="#ap"/></g><g id="V"><use transform="matrix(0.009765625,0,0,0.009765625,0,0)" xlink:href="#ar"/><use transform="matrix(0.009765625,0,0,0.009765625,5.9765625,0)" xlink:href="#av"/><use transform="matrix(0.009765625,0,0,0.009765625,16.962890625,0)" xlink:href="#ak"/><use transform="matrix(0.009765625,0,0,0.009765625,32.0703125,0)" xlink:href="#aJ"/><use transform="matrix(0.009765625,0,0,0.009765625,42.939453125,0)" xlink:href="#ay"/><use transform="matrix(0.009765625,0,0,0.009765625,46.40625,0)" xlink:href="#aq"/><use transform="matrix(0.009765625,0,0,0.009765625,56.34765625,0)" xlink:href="#ar"/><use transform="matrix(0.009765625,0,0,0.009765625,62.32421875,0)" xlink:href="#av"/></g><g id="W"><use transform="matrix(0.009765625,0,0,0.009765625,0,0)" xlink:href="#aC"/><use transform="matrix(0.009765625,0,0,0.009765625,7.587890625,0)" xlink:href="#av"/><use transform="matrix(0.009765625,0,0,0.009765625,18.57421875,0)" xlink:href="#aT"/><use transform="matrix(0.009765625,0,0,0.009765625,29.482421875,0)" xlink:href="#ap"/><use transform="matrix(0.009765625,0,0,0.009765625,40.3515625,0)" xlink:href="#av"/><use transform="matrix(0.009765625,0,0,0.009765625,51.337890625,0)" xlink:href="#aC"/><use transform="matrix(0.009765625,0,0,0.009765625,59.70703125,0)" xlink:href="#ax"/><use transform="matrix(0.009765625,0,0,0.009765625,63.61328125,0)" xlink:href="#aT"/><use transform="matrix(0.009765625,0,0,0.009765625,74.521484375,0)" xlink:href="#bj"/></g><g id="X"><use transform="matrix(0.009765625,0,0,0.009765625,0,0)" xlink:href="#ag"/><use transform="matrix(0.009765625,0,0,0.009765625,10.712890625,0)" xlink:href="#av"/><use transform="matrix(0.009765625,0,0,0.009765625,21.69921875,0)" xlink:href="#aT"/><use transform="matrix(0.009765625,0,0,0.009765625,32.607421875,0)" xlink:href="#ap"/><use transform="matrix(0.009765625,0,0,0.009765625,43.4765625,0)" xlink:href="#av"/><use transform="matrix(0.009765625,0,0,0.009765625,54.462890625,0)" xlink:href="#aC"/><use transform="matrix(0.009765625,0,0,0.009765625,62.83203125,0)" xlink:href="#ax"/><use transform="matrix(0.009765625,0,0,0.009765625,66.73828125,0)" xlink:href="#aT"/><use transform="matrix(0.009765625,0,0,0.009765625,77.646484375,0)" xlink:href="#bj"/></g><path d="M182 0C123 0 72-49 72-109c0-61 49-111 110-111s109 50 109 111C291-49 242 0 182 0" id="br"/><g id="Y"><use transform="matrix(0.010850694444444444,0,0,0.010850694444444444,0,0)" xlink:href="#br"/><use transform="matrix(0.010850694444444444,0,0,0.010850694444444444,4.231770833333333,0)" xlink:href="#br"/><use transform="matrix(0.010850694444444444,0,0,0.010850694444444444,8.463541666666666,0)" xlink:href="#br"/></g><g id="Z"><use transform="matrix(0.009765625,0,0,0.009765625,0,0)" xlink:href="#ay"/><use transform="matrix(0.009765625,0,0,0.009765625,3.466796875,0)" xlink:href="#aB"/><use transform="matrix(0.009765625,0,0,0.009765625,14.453125,0)" xlink:href="#at"/><use transform="matrix(0.009765625,0,0,0.009765625,25.0390625,0)" xlink:href="#aq"/><use transform="matrix(0.009765625,0,0,0.009765625,35.44921875,0)" xlink:href="#ay"/></g><g id="aa"><use transform="matrix(0.009765625,0,0,0.009765625,0,0)" xlink:href="#aB"/><use transform="matrix(0.009765625,0,0,0.009765625,10.986328125,0)" xlink:href="#aC"/></g><path d="M695-649l-152-510-156 510h308zM888 0L732-517H348L192 0H57l406-1355h160L1029 0H888" id="bs"/><path d="M49-130h171v-1096H49v-129h479v129H352v1096h176V0H49v-130" id="bt"/><g id="ab"><use transform="matrix(0.009765625,0,0,0.009765625,0,0)" xlink:href="#bs"/><use transform="matrix(0.009765625,0,0,0.009765625,11.23046875,0)" xlink:href="#ba"/><use transform="matrix(0.009765625,0,0,0.009765625,21.58203125,0)" xlink:href="#bt"/></g><g id="ac"><use transform="matrix(0.009765625,0,0,0.009765625,0,0)" xlink:href="#aq"/><use transform="matrix(0.009765625,0,0,0.009765625,10.41015625,0)" xlink:href="#at"/><use transform="matrix(0.009765625,0,0,0.009765625,20.99609375,0)" xlink:href="#at"/><use transform="matrix(0.009765625,0,0,0.009765625,31.58203125,0)" xlink:href="#av"/><use transform="matrix(0.009765625,0,0,0.009765625,42.568359375,0)" xlink:href="#ai"/><use transform="matrix(0.009765625,0,0,0.009765625,52.36328125,0)" xlink:href="#ai"/></g><g id="ad"><use transform="matrix(0.008680555555555556,0,0,0.008680555555555556,0,0)" xlink:href="#aZ"/><use transform="matrix(0.008680555555555556,0,0,0.008680555555555556,9.20138888888889,0)" xlink:href="#av"/><use transform="matrix(0.008680555555555556,0,0,0.008680555555555556,18.96701388888889,0)" xlink:href="#aX"/></g><g id="ae"><use transform="matrix(0.008680555555555556,0,0,0.008680555555555556,0,0)" xlink:href="#av"/><use transform="matrix(0.008680555555555556,0,0,0.008680555555555556,9.765625,0)" xlink:href="#aT"/><use transform="matrix(0.008680555555555556,0,0,0.008680555555555556,19.461805555555557,0)" xlink:href="#aw"/></g><g id="af"><use transform="matrix(0.008680555555555556,0,0,0.008680555555555556,0,0)" xlink:href="#bp"/><use transform="matrix(0.008680555555555556,0,0,0.008680555555555556,12.109375,0)" xlink:href="#bb"/></g></defs></g></svg>