<svg xmlns="http://www.w3.org/2000/svg" xmlns:xlink="http://www.w3.org/1999/xlink" xmlns:lucid="lucid" width="402" height="127"><g transform="translate(-45 -1134)" lucid:page-tab-id="0_0"><path d="M80 1153.24h333.5V1240H80z" stroke="#ffc374" stroke-width="5" fill="#fff" fill-opacity="0"/><use xlink:href="#a" transform="matrix(1,0,0,1,85,1158.2442909200406) translate(-26.14453125 67.4609375)"/><defs><path fill="#666" d="M414-144c126 0 249-107 249-234v-814H475v-165h356v985c9 211-206 393-415 393C201 21-15-166-6-378v-142h166v147c-7 109 144 229 254 229" id="b"/><path fill="#666" d="M481-991c226 7 428 115 428 329 0 99-50 175-149 230-58 32-156 64-295 95-121 27-191 52-212 74-23 25-35 57-38 98h682V0H47v-146c0-110 35-191 104-244 47-35 126-66 238-91 129-29 216-55 259-77 63-31 94-65 94-101 0-106-121-167-260-167-126 0-272 71-267 188H48c-6-217 206-360 433-353" id="c"/><path fill="#666" d="M51-681h547v165H51v-165" id="d"/><path fill="#666" d="M535-805c-177 0-317 145-317 321V0H51v-970h167v134c85-89 189-134 310-134h218v218c-83-35-153-53-211-53" id="e"/><path fill="#666" d="M812-616c-46-109-154-210-294-210-133 0-258 109-301 210h595zM27-484c0-260 230-507 491-507 282 0 495 254 487 541H192c10 148 163 311 326 306 147-5 277-104 326-215l166 28C943-150 749 16 518 21 256 27 27-223 27-484zm519-568l-430-305h299l213 225" id="f"/><path fill="#666" d="M68-580C-45-823 215-987 454-987c229 0 422 106 446 301l-161 34c-17-73-62-125-139-149-121-38-274-36-352 29-25 21-38 44-38 71 0 66 59 112 178 131 86 13 176 12 261 32 115 27 244 96 244 266 0 81-40 141-102 191C645 38 359 49 192-49 101-102 48-180 33-282l163-35c5 118 149 172 287 172 93 0 238-46 238-127 0-45-37-74-103-103-48-21-337-53-386-71-61-22-144-92-164-134" id="g"/><path fill="#666" d="M470-144c172 0 264-158 264-340v-486h165V0H734v-96C656-18 568 21 470 21 202 21 46-186 46-463v-507h165v507c-4 167 99 319 259 319" id="h"/><path fill="#666" d="M1018-991c257 0 359 224 359 507V0h-166v-484c0-228-64-342-193-342-155-1-215 166-215 342V0H637l-1-484c0-228-64-342-193-342-159-1-225 164-225 342V0H53v-970h165v68c59-59 134-89 225-89 133 0 229 56 286 168 46-112 142-168 289-168" id="i"/><g id="a"><use transform="matrix(0.0390625,0,0,0.0390625,0,0)" xlink:href="#b"/><use transform="matrix(0.0390625,0,0,0.0390625,38.4765625,0)" xlink:href="#c"/><use transform="matrix(0.0390625,0,0,0.0390625,80.2734375,0)" xlink:href="#d"/><use transform="matrix(0.0390625,0,0,0.0390625,109.140625,0)" xlink:href="#e"/><use transform="matrix(0.0390625,0,0,0.0390625,143.7890625,0)" xlink:href="#f"/><use transform="matrix(0.0390625,0,0,0.0390625,188.1640625,0)" xlink:href="#g"/><use transform="matrix(0.0390625,0,0,0.0390625,228.515625,0)" xlink:href="#h"/><use transform="matrix(0.0390625,0,0,0.0390625,270.3125,0)" xlink:href="#i"/><use transform="matrix(0.0390625,0,0,0.0390625,331.9140625,0)" xlink:href="#f"/></g></defs></g></svg>